<svg xmlns="http://www.w3.org/2000/svg" width="805" height="600"><rect width="805" height="600" x="0" y="0" fill="#FFFFFF" id="backgorund"/><g transform="translate(402.5,300)" id="viz"><path fill="#5ea4bf" display="" d="M0.9999920729479248,-287.99826391118063A288,288,0,0,1,287.1182328526199,-22.519333107104924L144.5163824699198,-11.832801773369702A145,145,0,0,0,0.999992072947915,-144.99655173780528Z"><title>Alto</title></path><path fill="#f2be5c" display="" d="M287.26769185501405,-20.524941322515467A288,288,0,0,1,125.85872533102362,259.04358949422L63.8126077530267,130.2034987692664A145,145,0,0,0,144.66584147231396,-9.838409988780242Z"><title>Medio Alto</title></path><path fill="#f27f3d" display="" d="M124.05680187927308,259.9113500936171A288,288,0,0,1,-41.93509092041469,284.9306023394057L-20.62179167102178,143.52610113939895A145,145,0,0,0,62.010684301276164,131.0712593686635Z"><title>Medio Bajo</title></path><path fill="#d91a2a" display="" d="M-43.912736895838,284.63252016998496A288,288,0,0,1,-0.99999207294796,-287.99826391118063L-0.9999920729479006,-144.99655173780528A145,145,0,0,0,-22.599437646445093,143.22801896997822Z"><title>Bajo</title></path></g><g id="labels" transform="translate(402.5,300)" text-anchor="middle"><text transform="rotate(90) translate(72.5,0) rotate(180)"><tspan x="0" y="4" style="font-family: Arial, sans-serif; font-size: 10px; fill: black; font-weight: normal; font-style: italic;"/></text><text transform="rotate(-47.14285714285714) translate(217.5,0) rotate(0)"><tspan x="0" y="4" style="font-family: Arial, sans-serif; font-size: 10px; fill: black; font-weight: normal; font-style: italic;">Alto</tspan></text><text transform="rotate(30.000000000000014) translate(217.5,0) rotate(0)"><tspan x="0" y="4" style="font-family: Arial, sans-serif; font-size: 10px; fill: black; font-weight: normal; font-style: italic;">Medio Alto</tspan></text><text transform="rotate(81.42857142857144) translate(217.5,0) rotate(0)"><tspan x="0" y="4" style="font-family: Arial, sans-serif; font-size: 10px; fill: black; font-weight: normal; font-style: italic;">Medio Bajo</tspan></text><text transform="rotate(184.28571428571428) translate(217.5,0) rotate(180)"><tspan x="0" y="4" style="font-family: Arial, sans-serif; font-size: 10px; fill: black; font-weight: normal; font-style: italic;">Bajo</tspan></text></g></svg>