<svg xmlns="http://www.w3.org/2000/svg" width="805" height="600"><rect width="805" height="600" x="0" y="0" fill="#FFFFFF" id="backgorund"/><g id="viz"><g transform="translate(0,0)"><g transform="translate(50,20)"><g class="bars"><rect id="undefined - Alto" x="0.9986595174262902" y="280" height="280" width="185.00167560321714" fill="#5b9bc0"/><rect id="undefined - Medio Alto" x="372.99932975871315" y="336" height="224" width="185.00167560321714" fill="#f2be5c"/><rect id="undefined - Medio Bajo" x="558.9996648793566" y="448" height="112" width="185.00167560321714" fill="#fd8d3c"/><rect id="undefined - Bajo" x="186.99899463806972" y="0" height="560" width="185.00167560321714" fill="#e31a1c"/></g><g id="xAxis" transform="translate(0,560)" fill="none" font-size="10" font-family="sans-serif" text-anchor="middle"><path class="domain" stroke="currentColor" d="M0.5,0.5H745.5"/><g class="tick" opacity="1" transform="translate(93.49949731903486,0)"><line stroke="currentColor" y2="6"/><text fill="currentColor" y="9" dy="0.71em">Alto</text></g><g class="tick" opacity="1" transform="translate(279.4998324396783,0)"><line stroke="currentColor" y2="6"/><text fill="currentColor" y="9" dy="0.71em">Bajo</text></g><g class="tick" opacity="1" transform="translate(465.5001675603217,0)"><line stroke="currentColor" y2="6"/><text fill="currentColor" y="9" dy="0.71em">Medio Alto</text></g><g class="tick" opacity="1" transform="translate(651.5005026809652,0)"><line stroke="currentColor" y2="6"/><text fill="currentColor" y="9" dy="0.71em">Medio Bajo</text></g><text x="745" y="-4" text-anchor="end" style="font-family: Arial, sans-serif; font-size: 12px; fill: rgb(123, 123, 123); font-weight: bold;">Nivel de calidad de vida</text></g><g id="yAxis" fill="none" font-size="10" font-family="sans-serif" text-anchor="end"><path class="domain" stroke="currentColor" d="M-6,560.5H0.5V0.5H-6"/><g class="tick" opacity="1" transform="translate(0,560.5)"><line stroke="currentColor" x2="-6"/><text fill="currentColor" x="-9" dy="0.32em">0</text></g><g class="tick" opacity="1" transform="translate(0,504.5)"><line stroke="currentColor" x2="-6"/><text fill="currentColor" x="-9" dy="0.32em">2</text></g><g class="tick" opacity="1" transform="translate(0,448.5)"><line stroke="currentColor" x2="-6"/><text fill="currentColor" x="-9" dy="0.32em">4</text></g><g class="tick" opacity="1" transform="translate(0,392.5)"><line stroke="currentColor" x2="-6"/><text fill="currentColor" x="-9" dy="0.32em">6</text></g><g class="tick" opacity="1" transform="translate(0,336.5)"><line stroke="currentColor" x2="-6"/><text fill="currentColor" x="-9" dy="0.32em">8</text></g><g class="tick" opacity="1" transform="translate(0,280.5)"><line stroke="currentColor" x2="-6"/><text fill="currentColor" x="-9" dy="0.32em">10</text></g><g class="tick" opacity="1" transform="translate(0,224.5)"><line stroke="currentColor" x2="-6"/><text fill="currentColor" x="-9" dy="0.32em">12</text></g><g class="tick" opacity="1" transform="translate(0,168.50000000000003)"><line stroke="currentColor" x2="-6"/><text fill="currentColor" x="-9" dy="0.32em">14</text></g><g class="tick" opacity="1" transform="translate(0,112.49999999999997)"><line stroke="currentColor" x2="-6"/><text fill="currentColor" x="-9" dy="0.32em">16</text></g><g class="tick" opacity="1" transform="translate(0,56.499999999999986)"><line stroke="currentColor" x2="-6"/><text fill="currentColor" x="-9" dy="0.32em">18</text></g><g class="tick" opacity="1" transform="translate(0,0.5)"><line stroke="currentColor" x2="-6"/><text fill="currentColor" x="-9" dy="0.32em">20</text></g><text x="4" text-anchor="start" dominant-baseline="hanging" style="font-family: Arial, sans-serif; font-size: 12px; fill: rgb(123, 123, 123); font-weight: bold;">Nº de Comunas [sum]</text></g></g><text y="4" x="4" style="font-family: Arial, sans-serif; font-size: 12px; fill: black; font-weight: bold; dominant-baseline: hanging;"/></g></g></svg>